<?xml version="1.0" ?><!-- Uploaded to: SVG Repo, www.svgrepo.com, Generator: SVG Repo Mixer Tools -->
<svg fill="#212A3E" width="800px" height="800px" viewBox="0 0 750 750" id="Layer_1" xmlns="http://www.w3.org/2000/svg"><path d="M632.19,342.16c-47.26-10.33-34.18-27.1-36.16-65.95,.37-69.2-55-34.11-88.46-10.83-13.64,13.78-26.34,28.52-38.75,43.51,0-9.14-12.26-7.01-17.75-11.85-7.18-11.5-3.79-26.48-5.64-39.37-6.07-52.32-35.72-40.63-68.57-17.3-10.89,8.41-18.4,19.99-27.47,30.14-10.3,10.56-21.51,20.56-29.61,33.08-17.76,28.19-40.9,65.88-73.52,77.66-38.51,14.59-78.73,1.4-116.53-8.62-7.21-2.88-15.11-1.8-15.97,7.3-1.28,16.11,20.15,14.87,30.99,19.09,20.86,6.08,42.48,9.13,64.21,9.29,34.95,.91,63.23-22.5,86.65-45.81,8.66-8.02,18.69-14.62,25.82-24.19,13.88-20.01,30.2-38.1,44.66-57.61,9.36-18.39,33.83-31.56,53.81-34.07,8.77,15.42,6.42,34.19,13.71,50.48,2.41,5.89,5.86,11.61,11.25,15.2,4.52,1.04,11.83,4.9,17.21,4.82-6.79,8.3-13.53,16.64-20.32,24.89-13.93,17.08-25.08,36.2-35.05,55.8-13.04,29.41-27.06,60.17-55.34,77.95-87.51,58.82-109.34,35.98-203.06,17.26-10.08-.57-28.99-7.08-29.19,8.75-.34,17.06,31.02,11,42.93,15.49,30.06,7.37,60.29,12.55,91.38,12.1,33.17-.52,66.86-9.38,96.6-23.92,24.59-13.1,39.91-36.98,52.83-60.8,13.61-22.49,28.97-43.94,40.7-67.53,15.98-33.06,33.73-66.57,62.36-90.48,18.94-12.04,39.64-22.92,61.85-27.13,18.28-3.46,8.3,58.06,18.91,70.47,6.17,12.23,20.08,16.73,32.05,21.28,5.67,1.61,16.27,7.71,17.55-1.84,.31-2.78-.92-6.67-4.07-7.25Z"/><ellipse cx="506.2" cy="336.48" rx="7.84" ry="10.32"/><path d="M554.3,313.18c0-4.46-2.65-10.32-7.84-10.32s-7.84,5.86-7.84,10.32,2.65,10.32,7.84,10.32,7.84-5.86,7.84-10.32Z"/><path d="M547.46,354.77c-10.22,11.44-26.31,7.74-39.46,11.84-8.21,3.48-7.28,19.34,2.26,20.17,18.25,.66,38.58-2.18,50.21-17.96,5.76-7.99,16.04-20.35,6.75-29.36-10.56-7.16-13.16,10.56-19.76,15.3Z"/><ellipse cx="377.03" cy="297.94" rx="7.84" ry="10.32"/><ellipse cx="409.84" cy="290.98" rx="7.84" ry="10.32"/><path d="M373.45,323.16c-2.69,5.31-1.12,14.25,5.41,15.79,16.12,2.45,32.49-2.45,44.78-13.18,6.1-5.16,5.01-18.14-3.35-20.32-9.26,.67-15.64,11.96-28.1,11.63-6.36,.84-15.43-.9-18.73,6.08Z"/></svg>